<?xml version="1.0" standalone="no"?>
<!DOCTYPE svg PUBLIC "-//W3C//DTD SVG 20010904//EN"
 "http://www.w3.org/TR/2001/REC-SVG-20010904/DTD/svg10.dtd">
<svg version="1.0" xmlns="http://www.w3.org/2000/svg"
 width="4096.000000pt" height="4096.000000pt" viewBox="0 0 4096.000000 4096.000000"
 preserveAspectRatio="xMidYMid meet">
<metadata>
Created by potrace 1.11, written by Peter Selinger 2001-2013
</metadata>
<g transform="translate(0.000000,4096.000000) scale(0.100000,-0.100000)"
fill="#000000" stroke="none">
<path d="M19655 32554 c-483 -12 -1251 -63 -1720 -115 -1548 -169 -2978 -479
-4389 -950 -2316 -774 -4402 -1955 -6001 -3399 -2023 -1828 -3236 -3989 -3509
-6255 -76 -631 -73 -1442 9 -2145 137 -1176 515 -2320 1112 -3360 983 -1713
2572 -3183 4663 -4312 2172 -1173 4828 -1941 7725 -2232 1403 -142 2849 -173
3959 -86 1502 118 2917 409 4371 900 819 277 1594 601 2395 1001 626 313 1162
612 1690 944 92 58 134 78 157 78 319 -8 2442 -1309 6457 -3957 214 -141 391
-254 393 -252 2 2 -46 141 -106 309 -968 2680 -1850 5868 -2661 9612 -40 181
-78 341 -85 355 -25 48 -95 130 -137 160 -47 35 -84 37 -278 19 -503 -45 -932
-247 -1223 -574 -322 -362 -496 -868 -513 -1495 l-6 -185 346 -1255 c190 -690
344 -1255 343 -1257 -2 -1 -73 56 -158 128 -689 584 -1369 1076 -1604 1160
-78 28 -234 31 -317 6 -91 -27 -183 -73 -276 -135 -459 -309 -1257 -737 -1924
-1033 -1506 -668 -3155 -1130 -4967 -1394 -1451 -211 -3034 -272 -4521 -175
-1388 91 -2837 340 -4140 712 -1134 323 -2134 708 -3120 1200 -1354 676 -2500
1481 -3404 2392 -1202 1212 -1893 2509 -2051 3851 -23 199 -38 579 -31 787 35
1007 335 2008 874 2913 740 1243 1930 2339 3477 3203 273 152 874 453 1135
567 2409 1059 5356 1599 8377 1535 1444 -31 2670 -175 4048 -476 1787 -390
3504 -1064 4910 -1927 830 -509 1583 -1112 2168 -1736 444 -472 712 -825 1067
-1406 67 -110 133 -214 146 -231 31 -42 99 -80 176 -100 79 -21 285 -21 413
-1 77 12 102 22 178 66 206 122 465 353 619 551 344 445 532 951 569 1536 21
331 -19 497 -179 740 -76 116 -143 192 -473 539 -677 712 -1224 1200 -1914
1706 -2133 1567 -4792 2654 -7725 3159 -901 155 -1672 240 -2685 296 -260 14
-1344 26 -1660 18z"/>
</g>
</svg>
